<?xml version="1.0" encoding="UTF-8" standalone="no"?><!DOCTYPE svg PUBLIC "-//W3C//DTD SVG 1.1//EN" "http://www.w3.org/Graphics/SVG/1.1/DTD/svg11.dtd"><svg width="100%" height="100%" viewBox="0 0 1917 309" version="1.1" xmlns="http://www.w3.org/2000/svg" xmlns:xlink="http://www.w3.org/1999/xlink" xml:space="preserve" xmlns:serif="http://www.serif.com/" style="fill-rule:evenodd;clip-rule:evenodd;stroke-linecap:round;stroke-linejoin:round;stroke-miterlimit:1.5;"><rect id="Top-Bar" serif:id="Top Bar" x="0" y="0" width="1916.98" height="308.598" style="fill:none;"/><g id="Goosegame-Run"><path d="M914.05,186.13c0,-0 -1.745,-1.237 -2.982,-0.364c-1.236,0.873 -1.309,3.491 -2.327,3.709c-1.018,0.218 -2.036,-0.873 -2.691,0.073c-0.654,0.945 -6.399,11.999 -10.254,13.236c-3.854,1.236 -4.291,0.8 -5.381,0.072c-1.091,-0.727 -4.073,-2.4 -5.237,-3.418c-1.163,-1.018 -6.036,-10.327 -9.454,-11.781c-3.418,-1.455 -14.545,-5.018 -15.854,-6.836c-1.309,-1.819 -6.4,-6.4 -10.836,-6.255c-4.436,0.146 -6.618,1.891 -12.218,2.255c-5.6,0.363 -11.345,1.454 -20.508,-0.8c-9.164,-2.255 -13.794,-2.382 -13.091,-2.909c0.873,-0.655 -3.272,-6.182 -0.436,-9.382c2.836,-3.2 6.109,-3.491 7.345,-3.054c1.236,0.436 5.382,2.036 8.145,4.218c2.764,2.182 3.273,2.545 5.527,2.691c2.255,0.145 5.018,1.745 10.4,0.872c5.382,-0.872 7.345,-3.272 12.218,-3.854c4.872,-0.582 9.963,-0.727 10.836,-1.164c0.873,-0.436 5.6,-4.509 6.763,-7.563c1.164,-3.055 2.982,-15.345 4.073,-18.836c1.091,-3.491 0.727,-5.818 1.091,-9.018c0.363,-3.2 -0.946,-15.199 0.145,-15.199c1.091,-0 2.109,0.291 2.109,0.291c0,-0 -0.945,-3.055 -0.218,-3.055c0.727,0 2.473,0.727 2.909,1.382c0.436,0.654 0.814,2.328 0.814,2.328c0,-0 0.521,-0.335 0.745,1.005c0.223,1.341 0.447,2.644 0.67,2.904c0.223,0.261 1.862,1.043 2.011,1.788c0.149,0.744 -0.186,1.862 0.111,2.234c0.298,0.372 1.862,-0.149 2.495,1.936c0.633,2.085 -0.223,6.479 0.112,6.963c0.335,0.484 2.048,0.633 2.159,2.309c0.112,1.675 -0.93,4.989 -1.117,5.808c-0.186,0.82 -0.67,2.197 -0.111,2.905c0.558,0.707 1.601,2.048 2.01,2.867c0.41,0.819 1.453,0.893 1.564,0.521c0.112,-0.372 4.237,-10.24 14.967,-21.112c10.731,-10.873 9.912,-9.868 9.912,-9.868c-0,0 0.447,0.484 1.08,0.596c0.633,0.112 1.973,-1.303 1.973,-1.303c0,-0 2.307,0.41 2.195,1.824c-0.111,1.415 -1.191,4.729 -1.042,5.809c0.149,1.08 2.718,1.564 3.686,2.979c0.968,1.415 1.117,3.016 0.447,5.325c-0.67,2.308 -3.426,4.58 -3.388,5.138c0.037,0.559 2.457,1.08 2.196,2.83c-0.26,1.75 -1.824,3.388 -2.196,6.255c-0.373,2.868 0.149,5.958 -1.49,7.187c-1.638,1.229 -1.899,1.787 -1.75,2.42c0.149,0.633 1.117,1.638 3.091,1.713c1.973,0.074 5.957,0.149 8.713,-1.266c2.755,-1.415 5.585,-0.559 6.479,-0.708c0.893,-0.148 5.25,-1.638 5.771,-0.558c0.521,1.08 -6.739,7.521 -8.527,9.644c-1.787,2.122 -12.548,18.915 -13.74,19.809c-1.191,0.894 0.086,4.407 0.086,4.407Z" style="fill:#fefefe;stroke:#c4c4c4;stroke-width:0.73px;"/><path d="M928.712,214.77c-0,0 -2.7,0.093 -2.746,-1.815c-0.047,-1.908 -0.28,-2.234 -0.605,-3.165c-0.326,-0.931 -0.885,-2.001 -0.838,-3.351c0.046,-1.35 0.279,-4.329 -0.047,-4.748c-0.326,-0.419 -5.073,-5.585 -7.074,-6.097c-2.002,-0.512 -7.517,-4.643 -8.68,-5.807c-1.164,-1.164 0.3,-3.233 1.159,-4.182c0.884,-0.978 2.913,-1.088 3.657,0.075c0.745,1.164 4.794,5.911 6.935,6.796c2.142,0.884 1.35,1.349 2.84,1.582c1.489,0.233 3.63,0.186 3.863,0.698c0.233,0.512 1.908,0.373 1.862,2.421c-0.047,2.048 -0.326,17.593 -0.326,17.593Z" style="fill:#fba11e;stroke:#c39550;stroke-width:0.73px;"/><path d="M891.089,202.879c-0,-0 -9.014,4.398 -9.759,5.934c-0.745,1.536 -1.117,4.933 -2.746,5.585c-1.629,0.652 -19.269,0.186 -19.269,0.186c-0,0 0.931,-2.467 2.28,-2.42c1.35,0.046 6.005,-0.838 8.099,-1.443c2.094,-0.605 4.794,-1.536 6.19,-2.886c1.397,-1.35 9.728,-8.657 10.426,-8.285c0.698,0.373 4.407,1.607 4.779,3.329Z" style="fill:#fba11e;stroke:#c39550;stroke-width:0.73px;"/><path d="M805.168,170.17l2.508,2.622c-0,0 0.946,0.308 -0.192,0.346c-1.139,0.038 -2.278,-0.154 -2.521,-0.192c-0.243,-0.038 -1.036,-0.102 -1.343,-0.179c-0.307,-0.077 -0.627,-0.141 -0.742,-0.23c-0.115,-0.09 1.842,-1.523 2.034,-1.715c0.192,-0.192 0.256,-0.652 0.256,-0.652" style="fill:#fefefe;"/><path d="M801.512,165.21c-0.23,-0 -0.369,0.085 -0.61,0.134c-0.295,0.059 -0.618,0.002 -0.908,0.074c-0.306,0.077 -0.535,0.282 -0.713,0.461c-0.023,0.022 -0.112,-0.022 -0.134,0c-0.055,0.055 -0.353,0.015 -0.447,0.015c-0.502,-0 -0.992,0.089 -1.502,0.089c-0.342,0 -0.676,0.03 -1.011,0.03c-0.193,-0 -0.448,-0.037 -0.61,0.045c-0.078,0.039 -0.273,-0.01 -0.342,0.059" style="fill:none;stroke:#c39550;stroke-width:0.42px;"/><path d="M801.526,165.21c0,0.095 -0.014,0.155 -0.014,0.238c-0,0.019 0.012,0.107 -0,0.119c-0.023,0.022 -0.075,0.063 -0.075,-0.015" style="fill:none;stroke:#c39550;stroke-width:0.42px;"/><path d="M801.378,165.477c-0.054,-0.076 -0.234,0.05 -0.268,0.015c-0.04,-0.04 0.068,-0.044 0.089,-0.044c0.025,-0 0.044,-0.015 0.075,-0.015" style="fill:none;stroke:#c39550;stroke-width:0.42px;"/><path d="M801.303,165.418c-0.069,0.07 -0.145,0.104 -0.267,0.104c-0.033,0 -0.202,-0.022 -0.223,0c-0.056,0.056 -0.166,0.001 -0.253,0.03c-0.094,0.031 -0.213,0.015 -0.313,0.015c-0.019,-0 -0.107,-0.012 -0.119,-0c-0.055,0.055 -0.207,0.059 -0.312,0.059c-0.13,0 -0.435,0.042 -0.506,-0.03c-0.018,-0.018 -0.09,0.008 -0.104,0.015c-0.071,0.036 -0.158,0.009 -0.208,0.06c-0.015,0.015 -0.125,-0 -0.149,-0c-0.08,-0 -0.296,-0.002 -0.342,0.044c-0.015,0.015 -0.074,-0.014 -0.089,0c-0.036,0.036 -0.149,0.03 -0.149,0.03c0,0 0.104,0.008 0.149,-0.015c0.087,-0.043 0.206,-0.029 0.312,-0.029c0.017,-0 0.094,-0.011 0.104,-0c0.026,0.026 -0.062,0.068 -0.074,0.074c-0.094,0.047 -0.215,0.067 -0.268,0.119c-0.004,0.005 -0.08,0.023 -0.059,0.045c0.069,0.069 0.347,-0.07 0.416,-0c0.016,0.015 -0.012,0.056 -0.015,0.059c-0.025,0.026 -0.292,0.005 -0.312,-0.015c-0.019,-0.018 0.099,-0.024 0.104,-0.03c0.01,-0.01 0.064,-0.029 0.089,-0.029" style="fill:none;stroke:#c39550;stroke-width:0.42px;"/><path d="M798.239,165.849c-0.446,0 -0.928,0.075 -1.353,0.075c-0.193,-0 -0.489,-0.06 -0.669,-0c-0.078,0.026 -0.198,0.104 -0.238,0.104" style="fill:none;stroke:#c39550;stroke-width:0.42px;"/><path d="M795.636,166.043c0,-0 -0.349,-0.023 -0.461,-0c-0.052,0.01 -0.104,0.022 -0.155,0.034c-0.033,0.008 -0.131,0.027 -0.097,0.025c0.044,-0.003 0.465,-0.07 0.49,-0.074c0.025,-0.004 -0.056,-0.018 -0.074,-0c-0.028,0.028 -0.122,0.033 -0.149,0.059c-0.028,0.028 -0.119,0 -0.119,0l0.179,-0.044l-0.104,-0c-0.057,-0 -0.079,0.029 -0.119,0.029" style="fill:none;stroke:#c39550;stroke-width:0.42px;"/><path d="M797.62,180.798l7.771,-3.813c0,0 -2.723,-8.46 -3.195,-9.223c-0.472,-0.763 -1.489,-3.305 -2.506,-2.724c-1.017,0.581 -0.726,2.542 -0.617,2.651c0.109,0.109 -1.126,-3.159 -2.615,-2.651c-1.489,0.509 -0.908,3.123 -0.653,3.232c0.254,0.109 -1.271,-3.268 -2.324,-2.723c-1.053,0.545 -1.38,1.452 -0.291,3.522c-0.871,-1.924 -2.578,-7.335 -4.721,-6.609c-2.142,0.727 -0.217,3.014 4.14,11.911c-2.179,-2.106 -4.721,-3.995 -5.519,-1.816c-0.799,2.179 8.896,6.863 9.55,7.335c0.653,0.473 0.98,0.908 0.98,0.908Z" style="fill:#fff;stroke:#808080;stroke-width:1.09px;"/><g><path d="M799.165,170.907c0.002,-0.016 -2.332,0.604 -2.648,0.935c-0.477,0.501 -4.838,1.883 -4.885,2.383c-0.048,0.501 1.215,1.597 2.669,1.168c1.454,-0.429 4.608,-1.407 8.897,-1.645c0,-0 3.566,-2.835 3.185,-4.217c-0.381,-1.383 -1.263,-4.052 -2.216,-4.147c-0.223,-0.022 -1.041,-0.029 -2.165,-0.026c-0.375,0.001 -0.542,-0.016 -0.457,0.139c0.436,0.803 1.382,2.573 1.945,4.206c0.102,0.293 -4.334,1.275 -4.325,1.204Z" style="fill:#fea31f;stroke:#c39550;stroke-width:0.73px;"/></g><ellipse cx="808.848" cy="164.72" rx="0.729" ry="0.808"/><path d="M785.021,164.117c-1.435,-0 -2.93,-0.966 -4.322,-1.662c-0.626,-0.313 -1.669,-0.451 -2.105,-0.887c-0.13,-0.129 -0.536,0.019 -0.665,-0.111c-0.107,-0.106 -0.525,0.07 -0.665,0c-0.431,-0.215 -1.114,-0.116 -1.441,-0.443c-0.477,-0.477 -1.435,-0.66 -1.884,-1.108c-1.184,-1.184 -2.422,-1.884 -4.654,-1.884" style="fill:none;stroke:#fff;stroke-width:1.25px;"/><path d="M785.354,170.101c-1.873,0 -3.369,-0.222 -5.32,-0.222c-0.524,0 -1.646,-0.229 -2.105,0c-0.748,0.374 -2.036,0.152 -2.549,0.665c-0.185,0.185 -0.813,-0.073 -0.997,0.111c-0.259,0.259 -1.183,-0.148 -1.441,0.111c-0.296,0.296 -1.478,-0.295 -1.773,0c-0.321,0.321 -1.238,0.129 -1.552,0.443c-0.605,0.605 -2.326,0.222 -3.213,0.222" style="fill:none;stroke:#fff;stroke-width:1.25px;"/><path d="M785.354,177.748c-1.459,1.093 -2.91,1.399 -4.544,2.216c-0.494,0.247 -1.065,0.089 -1.551,0.332c-0.738,0.369 -1.968,0.749 -2.438,1.219c-0.397,0.396 -1.436,0.328 -1.884,0.776c-0.347,0.347 -1.039,0.797 -1.441,0.997c-0.537,0.269 -1.303,0.361 -1.884,0.555c-0.678,0.226 -1.121,0.671 -1.773,0.997c-0.388,0.194 -1.255,0.036 -1.551,0.332c-0.444,0.443 -2.201,0.998 -2.771,0.998" style="fill:none;stroke:#fff;stroke-width:1.25px;"/></g></svg>