<?xml version="1.0" encoding="UTF-8" standalone="no"?><!DOCTYPE svg PUBLIC "-//W3C//DTD SVG 1.1//EN" "http://www.w3.org/Graphics/SVG/1.1/DTD/svg11.dtd"><svg width="100%" height="100%" viewBox="0 0 1917 309" version="1.1" xmlns="http://www.w3.org/2000/svg" xmlns:xlink="http://www.w3.org/1999/xlink" xml:space="preserve" xmlns:serif="http://www.serif.com/" style="fill-rule:evenodd;clip-rule:evenodd;stroke-linecap:round;stroke-linejoin:round;stroke-miterlimit:1.5;"><rect id="Top-Bar" serif:id="Top Bar" x="0" y="0" width="1916.98" height="308.598" style="fill:none;"/><g id="Goosegame-Idle"><path d="M877.943,192.958c0,0 4.444,12.027 3.377,15.64c-1.066,3.614 -5.332,8.591 -4.087,9.361c1.244,0.77 4.561,-0.119 4.561,-0.119c0,0 -1.066,-1.007 1.007,-0.829c2.074,0.178 2.844,-0.77 3.555,-0c0.711,0.77 -0.652,0.77 1.303,0.77c1.955,0 4.384,-0.533 5.865,-1.54c1.481,-1.007 2.903,-0.889 5.332,-0.77c2.429,0.118 2.962,-0.178 2.962,-0.178c0,-0 0.178,-2.074 -2.31,-3.14c-2.489,-1.066 -11.908,-1.54 -13.863,-6.22c-1.955,-4.681 -2.666,-13.389 -2.666,-13.389c0,-0 -4.562,-1.007 -5.036,0.414Z" style="fill:#ff8c31;stroke:#c39550;stroke-width:0.73px;"/><path d="M909.846,182.81c-0,0 0.427,15.877 -0,16.019c-0.427,0.142 -2.417,1.991 -0.616,4.029c1.801,2.038 7.82,5.118 9.384,6.019c1.564,0.9 2.227,1.042 3.317,0.805c1.09,-0.236 -0.568,-1.137 1.043,-1.421c1.611,-0.285 5.877,-0.806 7.82,-0.759c1.943,0.048 0.995,0.237 0.758,-1.09c-0.237,-1.327 2.228,-2.18 2.844,-2.18c0.616,0 -0.284,-1.659 -1.469,-1.943c-1.185,-0.284 -17.299,0.474 -18.342,-3.839c-1.042,-4.313 0.095,-15.545 0.095,-15.545l-4.834,-0.095Z" style="fill:#fe8c32;stroke:#c39550;stroke-width:0.73px;"/><path d="M876.796,191.027c0,-0 -2.26,-2.712 -3.616,-6.102c-1.355,-3.39 -1.278,-2.82 -2.782,-3.977c-1.504,-1.157 -0.926,-2.777 -1.736,-4.282c-0.81,-1.504 -2.198,-2.429 -2.892,-3.934c-0.695,-1.504 -2.314,-4.628 -2.314,-4.628c-0,0 -4.05,-5.091 -4.397,-6.595c-0.347,-1.504 0.694,-0.579 0.462,-2.777c-0.231,-2.199 0.463,-1.042 -0.925,-3.124c-1.389,-2.083 -6.017,-5.323 -6.596,-9.488c-0.578,-4.166 -2.777,-11.34 2.893,-11.108c5.67,0.231 8.1,3.124 11.571,3.239c3.471,0.116 11.108,-3.239 14.926,-3.934c3.819,-0.694 15.852,-5.438 18.514,-5.322c1.388,-3.24 0.81,-16.431 0.578,-18.629c-0.231,-2.199 -1.504,-18.513 -0.463,-20.133c1.042,-1.62 6.711,-11.803 13.538,-10.877c6.827,0.926 8.91,4.397 9.488,6.248c0.579,1.852 0.81,3.819 -1.851,4.282c-2.661,0.462 -8.563,4.396 -9.372,5.091c-0.81,0.694 -1.62,1.388 -1.62,4.859c-0,3.472 0.81,10.761 2.314,13.77c1.504,3.008 6.942,12.612 7.521,14.463c0.578,1.851 0.694,3.934 4.05,6.827c3.355,2.893 4.628,6.942 4.512,10.992c-0.116,4.05 -3.934,14.579 -4.628,17.588c-0.694,3.008 -3.587,4.397 -3.703,6.827c-0.116,2.429 -0.81,12.033 -4.165,13.537c-3.356,1.505 -5.67,0 -8.678,-1.851c-3.009,-1.851 -6.943,-2.546 -9.488,-1.736c-2.546,0.81 -9.604,5.67 -11.456,8.447c-1.851,2.777 -3.586,4.397 -5.901,4.05c-2.314,-0.347 -2.361,-0.206 -3.784,-1.723Z" style="fill:#fefefe;stroke:#c4c4c4;stroke-width:0.73px;"/><path d="M912.29,93.671c0,0 8.463,6.885 9.706,7.249c1.244,0.364 5.794,-0.455 5.794,-0.455c-0,0 -2.312,-10.006 -5.273,-13.981c-0.73,-0.98 -3.123,-0.483 -3.645,-0.669c-1.521,-0.542 -6.582,7.856 -6.582,7.856Z" style="fill:#fe8c32;stroke:#c39550;stroke-width:0.91px;"/><ellipse cx="913.426" cy="83.981" rx="0.682" ry="0.637" style="stroke:#000;stroke-width:1.25px;"/></g></svg>